<svg width="255" height="89" viewBox="0 0 255 89" fill="none" xmlns="http://www.w3.org/2000/svg">
<g clip-path="url(#clip0_4003_1082)">
<path d="M247.87 27.2928C246.039 24.0559 241.302 22.498 238.22 24.9548C234.511 27.6101 234.359 32.3419 233.491 36.4146C232.529 41.1027 231.584 45.7932 230.577 50.4716C230.123 53.2069 225.464 67.9254 211.904 69.2289H193.222C195.005 67.562 196.103 65.5947 196.948 63.5886C199.436 57.6794 203.344 41.8125 205.782 30.675C213.152 31.254 221.598 31.9348 226.719 31.4212C226.828 31.4091 226.938 31.3945 227.047 31.3703C237.961 29.0323 225.75 13.8608 219.364 13.8608C217.629 13.8608 219.807 19.0746 215.529 19.644C213.743 19.9832 211.075 20.0753 207.894 20.0486C208.607 16.3005 210.528 7.42101 209.055 4.96914C207.223 1.73229 203.645 0.894008 200.563 3.3483C196.854 6.00368 196.699 10.7354 195.834 14.8081C195.657 15.6755 195.289 17.2818 194.799 19.3533C187.024 18.7548 177.515 17.8972 171.943 18.4568C171.834 18.4665 171.724 18.4835 171.618 18.5077C160.698 20.8457 172.912 36.0172 179.298 36.0172C181.033 36.0172 178.855 30.8034 183.133 30.234C185.195 29.8415 188.435 29.781 192.282 29.8488C190.206 38.44 187.911 47.8477 187.347 50.4692C186.898 53.1827 182.135 67.7195 168.824 69.2264H157.183C161.336 66.1204 162.116 61.5389 158.147 55.9641C154.479 51.1888 141.34 44.388 136.822 40.7247C133.91 38.2147 128.611 34.9488 135.639 32.3031C140.696 30.3988 151.012 28.6277 149.43 34.8737C149.093 36.2062 148.337 37.4685 147.751 38.3068C147.458 38.7259 147.775 39.2953 148.286 39.2638C152.16 39.0433 156.153 38.2946 159.327 35.0433C164.57 29.5823 166.319 21.7179 159.988 18.3623C159.739 18.2291 159.346 18.0522 159.131 17.9529C157.132 17.0298 154.683 16.5598 150.382 16.9741C140.262 17.948 126.794 22.939 119.024 30.0959C107.07 41.8174 142.525 54.1446 147.027 61.866C149.595 65.5075 141.997 69.224 134.653 69.2264H130.922C127.213 69.0447 113.815 65.5026 117.224 61.7182C117.277 61.6576 117.362 61.5704 117.454 61.4783C117.657 61.2724 117.561 60.9211 117.28 60.8533H117.272C115 60.3154 112.565 60.0441 110.178 61.3863C106.922 63.2543 104.778 66.4863 105.941 69.2264H84.2205C87.9444 64.9793 92.3635 59.5595 98.6507 52.2596C98.9027 51.9665 99.6513 50.5661 99.6101 50.3626C99.3048 48.8629 99.7264 47.133 99.787 45.6115C99.9178 42.2438 100.429 39.0772 101.054 35.7749C101.393 33.9845 101.42 32.3322 101.226 30.5296C101.153 29.8682 101.122 29.2068 101.117 28.5453C100.412 29.7059 99.598 30.9318 98.6749 32.2231C96.2303 35.6441 93.4078 38.7477 91.9638 41.202C90.1588 44.2668 88.1067 46.6121 87.6633 47.024C83.8959 50.5201 82.8541 44.1845 81.7469 40.3419C80.0388 33.7786 80.2665 26.5417 77.2114 20.4169C70.917 11.2224 60.4142 25.3472 54.6794 29.6598C54.7085 28.9475 54.7158 28.2328 54.7303 27.5156C54.7303 27.4696 54.7376 27.4309 54.7448 27.3872C54.74 27.3945 54.7327 27.3994 54.7279 27.4066C54.5607 16.5719 46.2602 14.4544 38.9555 18.4786C34.6429 20.9135 32.4503 25.8076 30.7786 30.767C30.5823 31.3461 31.1299 31.9009 31.7138 31.7192L31.7259 31.7143C43.5346 27.9784 37.0657 44.0972 32.6393 50.067C27.8446 58.0089 26.5096 49.2311 25.2716 44.2329C23.5635 36.5939 24.2371 27.9639 20.7361 21.0444C16.1159 11.9129 -2.06478 22.2945 0.193266 34.7356V34.7477C0.287755 35.2444 0.922526 35.4115 1.23749 35.0166C1.29806 34.9415 1.36105 34.8664 1.42404 34.7913C3.21449 32.6859 5.85533 31.5108 7.8929 35.8428C13.3684 45.5485 13.1261 81.5803 28.4672 72.3736C38.8368 65.6165 49.0682 48.766 53.5431 36.0633C55.6364 34.5417 58.9387 32.0342 59.4814 31.6756C61.2694 30.4933 62.6601 30.0111 64.3682 33.1341C68.3343 39.1741 69.301 57.0761 75.3604 63.4868C73.8001 65.3403 72.1332 67.2519 70.3428 69.2289C62.4493 68.6425 37.3153 71.7461 43.2996 82.4815C48.1985 91.2714 61.9454 89.5246 69.9358 83.6978C71.8086 82.3313 74.1538 80.427 80.2883 73.6529L174.322 73.7958C176.296 73.8879 178.092 73.8879 179.727 73.8031L220.008 73.8637C220.214 73.8637 220.415 73.8637 220.616 73.8637H221.321L221.326 73.8564C234.167 73.6408 238.012 68.7395 240.183 63.5862C243.524 55.6515 243.853 51.368 245.322 43.0869C245.499 41.2044 247.837 38.9367 249.394 40.9234L249.402 40.9331C249.668 41.3353 250.291 41.2093 250.376 40.7344C250.405 40.5624 250.439 40.3904 250.472 40.2183C250.732 38.9173 249.61 30.171 247.88 27.2903L247.87 27.2928ZM53.9526 80.8655C52.3027 80.1605 53.0222 78.0236 54.1028 77.1199C57.2355 74.4645 62.6819 73.6916 66.7183 73.8637C62.5995 78.7117 58.0931 82.5058 53.9526 80.8631V80.8655Z" fill="white"/>
<path d="M246.417 0C242.095 0 238.592 3.50336 238.592 7.82562C238.592 12.1479 242.095 15.6512 246.417 15.6512C250.74 15.6512 254.243 12.1479 254.243 7.82562C254.243 3.50336 250.74 0 246.417 0Z" fill="white"/>
<path d="M111.296 25.8586C111.129 16.5502 102.828 14.7307 95.5234 18.188C90.845 20.4582 88.662 25.2117 86.9346 29.8247L87.0945 29.924C98.7917 26.0233 95.0727 36.5915 90.9273 42.8787C90.3144 43.809 89.7959 44.6449 89.2072 45.3281C88.9503 45.694 88.7056 46.0138 88.4682 46.2997C88.8776 50.7939 90.2223 55.1089 92.209 59.155C99.8747 52.1071 106.69 41.6479 110.116 33.2796C110.147 33.2408 110.184 33.2045 110.218 33.1681C110.484 32.0851 110.77 31.0046 111 29.9143C111.276 28.606 111.267 27.2832 111.298 25.9531C111.298 25.9143 111.305 25.8804 111.313 25.844C111.308 25.8489 111.301 25.8537 111.296 25.861V25.8586Z" fill="white"/>
</g>
<defs>
<clipPath id="clip0_4003_1082">
<rect width="254.243" height="88.57" fill="white"/>
</clipPath>
</defs>
</svg>
